<svg height="50" viewBox="0 0 130 50" width="130" xmlns="http://www.w3.org/2000/svg"><g fill="#fff" fill-rule="nonzero"><path d="m0 33.6947126c1.68741463 0 2.37292683-.7931034 2.37292683-2.5960919v-13.0941379c0-1.8056322-.56159268-2.596092-2.37292683-2.596092v-1.8056322h9.68154146c5.29162684 0 8.77982924 2.3793104 8.77982924 6.5457471 0 3.8386207-3.1639024 6.5457472-8.89320241 6.5457472h-1.58195122v4.288046c0 2.0303448 1.01244878 2.5960919 3.82832193 2.5960919v1.8056322h-11.814539v-1.691954zm7.99149024-18.3973563v9.8212644h.9017122c2.70249996 0 4.16580486-2.0303448 4.16580486-4.9674713 0-3.0481609-1.4633049-4.8537931-4.27654145-4.8537931z"/><path d="m18.6986634 33.6947126c1.5819512 0 2.1382707-.6767816 2.1382707-2.3793103v-6.0857471c0-.904138-.6749658-1.4672414-1.5819512-1.3535632h-.5563195v-1.9298851l5.9665927-1.8056322h1.4633049v11.0585058c0 1.691954.5615927 2.3793103 2.1382707 2.3793103v1.8056322h-9.6920878v-1.691954h.1239195zm4.8275878-19.8645977c1.616322 0 2.9266098 1.3138127 2.9266098 2.9344828s-1.3102878 2.9344828-2.9266098 2.9344828c-1.6163219 0-2.9266097-1.3138127-2.9266097-2.9344828-.0071086-.7804365.2989465-1.5309821.8493408-2.0828571.5503943-.5518749 1.2989263-.8587534 2.0772689-.8516257z"/><path d="m29.7169537 23.0856322h-2.0248976v-1.2425288c2.3729268-.6767816 5.2916268-2.5960919 6.1907024-5.4168965h1.125822v4.7268965h3.7149488v1.9193104h-3.7149488v7.3362069c0 1.8056322 1.0124488 2.3793103 2.0248975 2.3793103.6791182.0031382 1.3443805-.1925671 1.914161-.5631034l.5615927 1.0151724c-.9017122 1.4672414-3.0399829 2.596092-5.1782537 2.596092-3.1639024 0-4.6140243-1.9193104-4.6140243-5.0785058v-7.6666667z"/><path d="m47.1737854 20.1511494c1.9322089.0174782 3.8289887.5220407 5.5157366 1.4672414l-1.914161 5.1921839h-1.2391951c-.337483-3.1724138-1.8007879-4.4017241-3.3774659-4.4017241-1.914161 0-3.0399829 1.691954-3.0399829 3.9496551 0 3.3865518 2.3729268 5.0785058 4.8407707 5.0785058 1.914161 0 2.9266098-.7931035 3.6015756-2.2577012l1.125822.452069c-.6749659 3.5002299-2.2516439 6.2073563-6.5281854 6.2073563-3.9390585 0-6.7549317-2.8208046-6.7549317-7.2225287.1133732-5.1921839 3.1639024-8.4597701 7.7673805-8.4597701"/><path d="m52.2307561 33.6947126c1.5819512 0 2.1382707-.6767816 2.1382707-2.3793103v-13.0835632c0-.904138-.6749658-1.3535632-1.5819512-1.3535632h-.6749658v-2.0329885l6.4174487-1.5862069h1.125822v10.045977c.7909756-2.144023 2.3729268-3.1724138 4.5032878-3.1724138 2.8132366 0 4.7273976 1.5862069 4.7273976 4.8537931v6.2126437c0 1.691954.5615926 2.3793103 2.1382707 2.3793103v1.8056322h-8.8879293v-1.8056322c1.3499317 0 1.3499317-.7931034 1.3499317-2.2577011v-6.202069c0-1.3535632-.6749658-2.0303448-1.914161-2.0303448-.9952431-.004074-1.8494239.7096582-2.0248975 1.691954v6.5457471c0 1.4672414.1133732 2.2577012 1.3499317 2.2577012v1.8056321h-8.8905659v-1.691954h.2241098z"/><path d="m71.931322 33.6947126c1.5819512 0 2.1382707-.6767816 2.1382707-2.3793103v-8.2297701h-2.1382707v-1.2425288c1.6874146 0 2.2516439-.4520689 2.2516439-1.691954 0-2.9344827 2.5891268-6.8735632 7.8807536-6.8735632 1.6874146 0 3.490839.5631035 5.0648805 1.2425287l-2.2516439 5.6310345-1.125822-.2247126c.1133732-3.0481609-.9017121-4.9674713-2.7025-4.9674713-1.4633048 0-2.2516439 1.2425288-2.2516439 2.8208046 0 1.3535632.337483 2.4824138.5615927 3.3865517h3.1639025v1.9193104h-3.0505293v8.1134483c0 1.691954.5615927 2.3793103 2.1382707 2.3793103v1.8056322h-9.6789048v-1.691954z"/><path d="m82.3985659 27.9367816c0-5.0785057 3.6015756-7.901954 7.7673804-7.901954 4.1658049 0 7.7673805 2.8208046 7.7673805 7.901954s-3.6015756 7.901954-7.7673805 7.901954c-4.1658048 0-7.7673804-2.8208046-7.7673804-7.901954m5.9665926 0c0 4.9674713.4508561 6.4347127 1.8007878 6.4347127s1.8007878-1.4672414 1.8007878-6.4347127-.4508561-6.4347126-1.8007878-6.4347126c-1.3499317.1136781-1.8007878 1.5862069-1.8007878 6.4347126"/><path d="m98.2708098 33.6947126c1.5819512 0 2.1382702-.6767816 2.1382702-2.3793103v-5.8610345c0-.9041379-.6749654-1.4672414-1.5819507-1.4672414h-.6749659v-1.9193103l5.6291096-1.691954h1.581951v2.3793103c0 1.2425287-.113373 3.0481609-.113373 3.7249425h.113373c.450856-4.5154023 2.475754-6.4347126 4.840771-6.4347126.30519-.025637.612351.0130866.901712.1136782v5.1842528c-1.914161-.3383908-5.291627-.2247126-5.291627 3.2728736v2.5828736c0 1.691954.561593 2.3793103 2.138271 2.3793103v1.8056322h-9.6815412v-1.691954z"/><path d="m110.654851 33.6947126c1.581951 0 2.138271-.6767816 2.138271-2.3793103v-13.0835632c0-.904138-.674966-1.3535632-1.581951-1.3535632h-.674966v-2.0329885l6.528185-1.5862069h1.125822v13.7709195h.22411l2.589127-1.2425287c1.239195-.5631035 1.463305-1.1288506 1.463305-1.9193104 0-1.0151724-.790976-1.5862069-2.024898-1.5862069v-1.7924138h7.886027v1.5862069c-1.687415 2.0303449-3.264093 2.8208046-5.064881 3.7249426l3.490839 4.7401149c1.125822 1.4672414 1.800788 3.0481609 2.92661 3.0481609v1.8056322h-6.644195l-4.614024-7.4498851h-.22411v3.7249426c0 1.2425287.113373 1.8056322 1.349932 1.8056322v1.8056321h-8.893203z"/></g></svg>